<svg xmlns="http://www.w3.org/2000/svg" xmlns:xlink="http://www.w3.org/1999/xlink" width="40" height="27" viewBox="0 0 40 27"><defs><path id="kyqga" d="M369.93 715.172h-20.793c-4.779 0-8.667-3.888-8.667-8.667 0-4.656 3.688-8.465 8.296-8.661.513-4.728 4.527-8.418 9.388-8.418 4.02 0 7.553 2.602 8.865 6.29a9.98 9.98 0 0 1 2.91-.436c5.483 0 9.945 4.462 9.945 9.946 0 5.483-4.462 9.946-9.945 9.946zm-20.793-14.33a5.67 5.67 0 0 0-5.663 5.663 5.67 5.67 0 0 0 5.663 5.663h20.792a6.949 6.949 0 0 0 6.941-6.942c0-3.826-3.114-6.943-6.94-6.943a6.874 6.874 0 0 0-3.244.807l-1.894 1.004-.298-2.121c-.443-3.16-3.169-5.543-6.34-5.543a6.445 6.445 0 0 0-6.438 6.437c.033.256.047.368.055.482l.134 1.884-1.867-.297c-.295-.044-.592-.094-.9-.094z"/></defs><g><g transform="translate(-340 -689)"><use fill="#e4ffdd" xlink:href="#kyqga"/></g></g></svg>