<svg xmlns="http://www.w3.org/2000/svg" xmlns:xlink="http://www.w3.org/1999/xlink" width="33" height="38" viewBox="0 0 33 38"><defs><path id="oacna" d="M742.803 701.977c-.346-8.768-7.542-15.774-16.395-15.774-8.851 0-16.05 7.006-16.395 15.774z"/><path id="oacnb" d="M729.79 721.11a4.888 4.888 0 0 1-4.884-4.883V684.99a1.501 1.501 0 1 1 3.005 0v31.237a1.88 1.88 0 0 0 1.878 1.878 1.882 1.882 0 0 0 1.88-1.878 1.503 1.503 0 1 1 3.004 0 4.889 4.889 0 0 1-4.884 4.882z"/></defs><g><g transform="translate(-710 -683)"><use fill="#e4ffdd" xlink:href="#oacna"/></g><g transform="translate(-710 -683)"><use fill="#e4ffdd" xlink:href="#oacnb"/></g></g></svg>