<svg xmlns="http://www.w3.org/2000/svg" xmlns:xlink="http://www.w3.org/1999/xlink" width="51" height="45" viewBox="0 0 51 45"><defs><path id="3l1za" d="M440.987 689.236c-4.409 0-8.063 3.2-8.786 7.402.35.596.636 1.232.854 1.893a10.417 10.417 0 0 1 2.328-.28c2.735 0 4.87.928 6.406 2.378 1.802 1.294 2.974 3.21 3.506 5.318 2.745-1.522 4.617-4.423 4.617-7.785a8.925 8.925 0 0 0-8.925-8.926z"/><path id="3l1zb" d="M442.162 686.024a1.175 1.175 0 1 1-2.351 0v-4.622a1.177 1.177 0 0 1 2.351 0z"/><path id="3l1zc" d="M433.235 688.749a1.176 1.176 0 0 1-1.662 1.662l-3.27-3.27a1.176 1.176 0 0 1 1.662-1.661z"/><path id="3l1zd" d="M448.736 707.577a1.173 1.173 0 0 1 .002-1.66 1.174 1.174 0 0 1 1.662-.003l3.27 3.271c.46.457.46 1.2 0 1.661a1.177 1.177 0 0 1-1.663.002z"/><path id="3l1ze" d="M453.123 699.34a1.175 1.175 0 0 1-1.173-1.176c0-.65.526-1.176 1.174-1.176h4.623c.651 0 1.176.524 1.176 1.176 0 .649-.526 1.177-1.174 1.176z"/><path id="3l1zf" d="M450.401 690.412a1.175 1.175 0 1 1-1.663-1.663l3.268-3.269a1.176 1.176 0 1 1 1.666 1.661z"/><path id="3l1zg" d="M437.375 716.41h-20.791c-4.778 0-8.667-3.889-8.667-8.669 0-4.654 3.688-8.465 8.297-8.659.512-4.728 4.526-8.419 9.387-8.419 4.02 0 7.553 2.602 8.865 6.291a9.917 9.917 0 0 1 2.909-.437c5.484 0 9.946 4.461 9.946 9.947 0 5.483-4.462 9.945-9.946 9.945zm-20.791-14.33a5.67 5.67 0 0 0-5.663 5.661 5.67 5.67 0 0 0 5.663 5.663h20.791c3.828 0 6.942-3.113 6.942-6.94 0-3.827-3.114-6.943-6.942-6.943a6.85 6.85 0 0 0-3.242.807l-1.894 1.004-.298-2.123c-.443-3.158-3.169-5.54-6.34-5.54a6.444 6.444 0 0 0-6.438 6.436c.033.256.047.366.056.48l.133 1.884-1.867-.295c-.295-.045-.592-.095-.901-.095z"/><path id="3l1zh" d="M434.209 724.026a1.178 1.178 0 0 1-1.664-1.664l3.269-3.269a1.176 1.176 0 1 1 1.665 1.662z"/><path id="3l1zi" d="M425.383 724.026a1.175 1.175 0 1 1-1.663-1.664l3.268-3.269a1.177 1.177 0 0 1 1.666 1.662z"/><path id="3l1zj" d="M416.557 724.026a1.175 1.175 0 1 1-1.663-1.664l3.269-3.269a1.176 1.176 0 1 1 1.665 1.662z"/></defs><g><g transform="translate(-408 -680)"><use fill="#e4ffdd" xlink:href="#3l1za"/></g><g transform="translate(-408 -680)"><use fill="#e4ffdd" xlink:href="#3l1zb"/></g><g transform="translate(-408 -680)"><use fill="#e4ffdd" xlink:href="#3l1zc"/></g><g transform="translate(-408 -680)"><use fill="#e4ffdd" xlink:href="#3l1zd"/></g><g transform="translate(-408 -680)"><use fill="#e4ffdd" xlink:href="#3l1ze"/></g><g transform="translate(-408 -680)"><use fill="#e4ffdd" xlink:href="#3l1zf"/></g><g transform="translate(-408 -680)"><use fill="#e4ffdd" xlink:href="#3l1zg"/></g><g transform="translate(-408 -680)"><use fill="#e4ffdd" xlink:href="#3l1zh"/></g><g transform="translate(-408 -680)"><use fill="#e4ffdd" xlink:href="#3l1zi"/></g><g transform="translate(-408 -680)"><use fill="#e4ffdd" xlink:href="#3l1zj"/></g></g></svg>