<svg xmlns="http://www.w3.org/2000/svg" xmlns:xlink="http://www.w3.org/1999/xlink" width="40" height="41" viewBox="0 0 40 41"><defs><path id="75oqa" d="M76.94 707.729H56.15c-4.78 0-8.667-3.89-8.667-8.67 0-4.654 3.688-8.464 8.296-8.66.513-4.726 4.527-8.417 9.388-8.417 4.02 0 7.552 2.6 8.864 6.29a9.936 9.936 0 0 1 2.91-.437c5.484 0 9.946 4.462 9.946 9.947 0 5.486-4.462 9.947-9.945 9.947zM56.15 693.396a5.67 5.67 0 0 0-5.663 5.663 5.67 5.67 0 0 0 5.663 5.664H76.94c3.827 0 6.94-3.114 6.94-6.942 0-3.827-3.113-6.942-6.94-6.942a6.85 6.85 0 0 0-3.243.807l-1.893 1.004-.3-2.122c-.442-3.16-3.168-5.542-6.34-5.542a6.444 6.444 0 0 0-6.437 6.437c.033.255.047.367.055.48l.135 1.89-1.873-.3c-.294-.048-.59-.097-.896-.097z"/><path id="75oqb" d="M75.207 715.346a1.176 1.176 0 0 1-1.662-.003 1.173 1.173 0 0 1-.002-1.661l3.269-3.27a1.176 1.176 0 1 1 1.665 1.662z"/><path id="75oqc" d="M66.38 715.346a1.176 1.176 0 0 1-1.663-1.664l3.27-3.27a1.177 1.177 0 0 1 1.665 1.662z"/><path id="75oqd" d="M57.555 715.346a1.176 1.176 0 0 1-1.662-.003 1.173 1.173 0 0 1-.002-1.661l3.27-3.27a1.176 1.176 0 1 1 1.665 1.662z"/><path id="75oqe" d="M67.79 722.273a1.177 1.177 0 0 1-1.664-1.664l3.269-3.269a1.174 1.174 0 0 1 1.664 0c.459.458.459 1.204 0 1.661z"/><path id="75oqf" d="M58.963 722.273a1.177 1.177 0 0 1-1.664-1.664l3.27-3.269a1.175 1.175 0 1 1 1.664 1.661z"/></defs><g><g transform="translate(-47 -682)"><use fill="#e4ffdd" xlink:href="#75oqa"/></g><g transform="translate(-47 -682)"><use fill="#e4ffdd" xlink:href="#75oqb"/></g><g transform="translate(-47 -682)"><use fill="#e4ffdd" xlink:href="#75oqc"/></g><g transform="translate(-47 -682)"><use fill="#e4ffdd" xlink:href="#75oqd"/></g><g transform="translate(-47 -682)"><use fill="#e4ffdd" xlink:href="#75oqe"/></g><g transform="translate(-47 -682)"><use fill="#e4ffdd" xlink:href="#75oqf"/></g></g></svg>