<svg xmlns="http://www.w3.org/2000/svg" xmlns:xlink="http://www.w3.org/1999/xlink" width="40" height="35" viewBox="0 0 40 35"><defs><path id="w9zoa" d="M516.424 711.192h-20.792c-4.778 0-8.667-3.89-8.667-8.669 0-4.655 3.688-8.465 8.297-8.66.512-4.727 4.526-8.418 9.387-8.418 4.019 0 7.552 2.601 8.865 6.291a9.92 9.92 0 0 1 2.91-.438c5.483 0 9.945 4.461 9.945 9.947 0 5.485-4.462 9.947-9.945 9.947zm-20.792-14.332a5.67 5.67 0 0 0-5.663 5.663 5.67 5.67 0 0 0 5.663 5.664h20.792c3.827 0 6.94-3.114 6.94-6.942 0-3.827-3.113-6.943-6.94-6.943a6.84 6.84 0 0 0-3.243.808l-1.893 1.003-.3-2.12c-.442-3.16-3.168-5.544-6.34-5.544a6.445 6.445 0 0 0-6.437 6.437c.033.256.047.368.056.481l.134 1.89-1.873-.3c-.293-.048-.59-.097-.896-.097z"/><path id="w9zob" d="M513.257 718.81a1.176 1.176 0 0 1-1.662-.003 1.173 1.173 0 0 1-.002-1.661l3.269-3.27a1.172 1.172 0 0 1 1.664 0c.459.459.459 1.205 0 1.662z"/><path id="w9zoc" d="M504.43 718.81a1.176 1.176 0 0 1-1.662-1.664l3.268-3.27a1.176 1.176 0 1 1 1.666 1.661z"/><path id="w9zod" d="M495.604 718.81a1.176 1.176 0 0 1-1.662-1.664l3.269-3.27a1.17 1.17 0 0 1 1.663 0c.46.459.46 1.205.002 1.662z"/></defs><g><g transform="translate(-487 -685)"><use fill="#e4ffdd" xlink:href="#w9zoa"/></g><g transform="translate(-487 -685)"><use fill="#e4ffdd" xlink:href="#w9zob"/></g><g transform="translate(-487 -685)"><use fill="#e4ffdd" xlink:href="#w9zoc"/></g><g transform="translate(-487 -685)"><use fill="#e4ffdd" xlink:href="#w9zod"/></g></g></svg>