<svg xmlns="http://www.w3.org/2000/svg" xmlns:xlink="http://www.w3.org/1999/xlink" width="40" height="40" viewBox="0 0 40 40"><defs><path id="md2wa" d="M223.435 708.585h-20.792c-4.779 0-8.667-3.891-8.667-8.67 0-4.653 3.688-8.465 8.296-8.659.513-4.727 4.527-8.418 9.388-8.418 4.02 0 7.552 2.6 8.864 6.291a9.898 9.898 0 0 1 2.911-.438c5.483 0 9.945 4.46 9.945 9.948 0 5.483-4.462 9.946-9.945 9.946zm-20.792-14.333a5.67 5.67 0 0 0-5.663 5.663 5.67 5.67 0 0 0 5.663 5.666h20.792c3.827 0 6.941-3.116 6.941-6.942 0-3.829-3.114-6.943-6.94-6.943-1.145 0-2.235.27-3.244.807l-1.893 1.004-.299-2.122c-.443-3.159-3.169-5.542-6.34-5.542a6.444 6.444 0 0 0-6.438 6.437c.033.255.047.367.055.479l.135 1.892-1.873-.302c-.294-.047-.589-.097-.896-.097z"/><path id="md2wb" d="M206.919 713.65a2.163 2.163 0 1 1-4.326 0 2.163 2.163 0 0 1 4.326 0z"/><path id="md2wc" d="M215.84 713.65a2.163 2.163 0 1 1-4.325 0 2.163 2.163 0 0 1 4.326 0z"/><path id="md2wd" d="M211.38 719.597a2.163 2.163 0 1 1-4.327 0 2.163 2.163 0 0 1 4.326 0z"/></defs><g><g transform="translate(-194 -682)"><use fill="#e4ffdd" xlink:href="#md2wa"/></g><g transform="translate(-194 -682)"><use fill="#e4ffdd" xlink:href="#md2wb"/></g><g transform="translate(-194 -682)"><use fill="#e4ffdd" xlink:href="#md2wc"/></g><g transform="translate(-194 -682)"><use fill="#e4ffdd" xlink:href="#md2wd"/></g></g></svg>