<svg xmlns="http://www.w3.org/2000/svg" xmlns:xlink="http://www.w3.org/1999/xlink" width="41" height="34" viewBox="0 0 41 34"><defs><path id="sb4ra" d="M150.188 711.558h-20.792c-4.779 0-8.667-3.89-8.667-8.67 0-4.654 3.688-8.464 8.296-8.66.513-4.725 4.528-8.416 9.388-8.416 4.02 0 7.553 2.6 8.865 6.29a9.946 9.946 0 0 1 2.91-.436c5.483 0 9.945 4.462 9.945 9.947 0 5.483-4.462 9.945-9.945 9.945zm-20.792-14.332a5.67 5.67 0 0 0-5.663 5.663 5.67 5.67 0 0 0 5.663 5.664h20.792c3.827 0 6.941-3.113 6.941-6.94 0-3.827-3.114-6.943-6.941-6.943a6.85 6.85 0 0 0-3.243.806l-1.893 1.003-.299-2.121c-.443-3.158-3.169-5.541-6.34-5.541a6.444 6.444 0 0 0-6.438 6.437c.032.252.047.365.055.479l.134 1.884-1.867-.295c-.295-.046-.592-.096-.901-.096z"/><path id="sb4rb" d="M133.672 716.623a2.163 2.163 0 1 1-4.326 0 2.163 2.163 0 0 1 4.326 0z"/><path id="sb4rc" d="M142.594 716.623a2.163 2.163 0 1 1-4.327 0 2.163 2.163 0 0 1 4.327 0z"/><path id="sb4rd" d="M151.516 716.623a2.163 2.163 0 1 1-4.326 0 2.163 2.163 0 0 1 4.326 0z"/></defs><g><g transform="translate(-120 -685)"><use fill="#e4ffdd" xlink:href="#sb4ra"/></g><g transform="translate(-120 -685)"><use fill="#e4ffdd" xlink:href="#sb4rb"/></g><g transform="translate(-120 -685)"><use fill="#e4ffdd" xlink:href="#sb4rc"/></g><g transform="translate(-120 -685)"><use fill="#e4ffdd" xlink:href="#sb4rd"/></g></g></svg>