<svg xmlns="http://www.w3.org/2000/svg" xmlns:xlink="http://www.w3.org/1999/xlink" width="40" height="40" viewBox="0 0 40 40"><defs><path id="fpvka" d="M296.76 702.297a9.832 9.832 0 0 1-9.833 9.834 9.833 9.833 0 0 1-9.835-9.834c0-5.431 4.402-9.833 9.835-9.833 5.43 0 9.833 4.402 9.833 9.833z"/><path id="fpvkb" d="M288.22 688.925a1.293 1.293 0 1 1-2.59 0v-5.094c0-.716.58-1.294 1.297-1.294.714 0 1.294.578 1.294 1.294z"/><path id="fpvkc" d="M278.385 691.927a1.296 1.296 0 0 1-1.831 1.83l-3.603-3.601a1.3 1.3 0 0 1 0-1.833 1.298 1.298 0 0 1 1.832 0z"/><path id="fpvkd" d="M273.552 701.004a1.295 1.295 0 0 1 0 2.589h-5.094a1.295 1.295 0 0 1 0-2.59z"/><path id="fpvke" d="M276.554 710.839a1.294 1.294 0 1 1 1.831 1.831l-3.602 3.605a1.296 1.296 0 0 1-1.832-1.834z"/><path id="fpvkf" d="M285.63 715.67a1.296 1.296 0 0 1 2.59 0v5.097c0 .716-.578 1.294-1.296 1.294a1.294 1.294 0 0 1-1.295-1.294z"/><path id="fpvkg" d="M295.464 712.67a1.297 1.297 0 0 1 .001-1.83 1.299 1.299 0 0 1 1.832 0l3.601 3.602a1.293 1.293 0 0 1 0 1.833 1.297 1.297 0 0 1-1.83 0z"/><path id="fpvkh" d="M300.297 703.596a1.294 1.294 0 0 1-1.292-1.297c0-.716.579-1.294 1.293-1.294h5.094a1.296 1.296 0 0 1 .002 2.591z"/><path id="fpvki" d="M297.298 693.76a1.293 1.293 0 0 1-1.83-.002 1.295 1.295 0 0 1-.003-1.831l3.602-3.601a1.295 1.295 0 1 1 1.834 1.831z"/></defs><g><g transform="translate(-267 -682)"><use  xlink:href="#fpvka"/></g><g transform="translate(-267 -682)"><use  xlink:href="#fpvkb"/></g><g transform="translate(-267 -682)"><use  xlink:href="#fpvkc"/></g><g transform="translate(-267 -682)"><use  xlink:href="#fpvkd"/></g><g transform="translate(-267 -682)"><use  xlink:href="#fpvke"/></g><g transform="translate(-267 -682)"><use  xlink:href="#fpvkf"/></g><g transform="translate(-267 -682)"><use  xlink:href="#fpvkg"/></g><g transform="translate(-267 -682)"><use  xlink:href="#fpvkh"/></g><g transform="translate(-267 -682)"><use  xlink:href="#fpvki"/></g></g></svg>
