<svg xmlns="http://www.w3.org/2000/svg" xmlns:xlink="http://www.w3.org/1999/xlink" width="41" height="24" viewBox="0 0 41 24"><defs><path id="cvhxa" d="M652.759 713.483a1.173 1.173 0 0 1-1.661-.003 1.174 1.174 0 0 1-.003-1.66l20.12-20.703a1.175 1.175 0 1 1 1.663 1.66z"/><path id="cvhxb" d="M643.933 713.483a1.172 1.172 0 0 1-1.66-.003 1.172 1.172 0 0 1-.003-1.66l20.119-20.703a1.176 1.176 0 0 1 1.664 1.66z"/><path id="cvhxc" d="M635.107 713.483a1.173 1.173 0 0 1-1.66-.003 1.172 1.172 0 0 1-.004-1.66l20.12-20.703a1.176 1.176 0 0 1 1.664 1.66z"/></defs><g><g transform="translate(-633 -690)"><use fill="#e4ffdd" xlink:href="#cvhxa"/></g><g transform="translate(-633 -690)"><use fill="#e4ffdd" xlink:href="#cvhxb"/></g><g transform="translate(-633 -690)"><use fill="#e4ffdd" xlink:href="#cvhxc"/></g></g></svg>